STARTFONT 2.1
FONT -Monotype-Bookman Old Style-Regular-R-Normal--36-360-75-75-P-186-iso8859-2
SIZE 36 75 75
FONTBOUNDINGBOX 55 44 -7 -9

STARTPROPERTIES 24
FOUNDRY "Monotype"
FAMILY_NAME "Bookman Old Style"
WEIGHT_NAME "Regular"
SLANT "R"
SETWIDTH_NAME "Normal"
ADD_STYLE_NAME ""
PIXEL_SIZE 36
POINT_SIZE 360
RESOLUTION_X 75
RESOLUTION_Y 75
SPACING "P"
AVERAGE_WIDTH 186
CHARSET_REGISTRY "iso8859"
CHARSET_ENCODING "2"
FACE_NAME "Bookman Old Style ISO Latin2"
_DEC_DEVICE_FONTNAMES "PS=bookmanoldstyle-lat2"
COPYRIGHT "Copyright (c) 1993 Monotype Typography Ltd."
CAP_HEIGHT 29
X_HEIGHT 20
WEIGHT 10
QUAD_WIDTH 22
DEFAULT_CHAR 160
FONT_DESCENT 9
FONT_ASCENT 35
ENDPROPERTIES

CHARS 191

STARTCHAR space
ENCODING 32
SWIDTH 320 0
DWIDTH 12 0
BBX 0 0 0 0
BITMAP
ENDCHAR

STARTCHAR exclam
ENCODING 33
SWIDTH 300 0
DWIDTH 11 0
BBX 5 27 3 0
BITMAP
70
F8
F8
F8
F8
F8
70
70
70
70
70
70
70
70
70
70
70
70
20
20
00
00
70
F8
F8
F8
70
ENDCHAR

STARTCHAR quotedbl
ENCODING 34
SWIDTH 380 0
DWIDTH 14 0
BBX 9 9 3 17
BITMAP
E380
E380
E380
E380
E380
4100
4100
4100
4100
ENDCHAR

STARTCHAR numbersign
ENCODING 35
SWIDTH 600 0
DWIDTH 23 0
BBX 19 25 2 0
BITMAP
018300
018300
038300
030700
030700
030600
030600
030600
7FFFE0
7FF7E0
060E00
060C00
060C00
060C00
060C00
FFFFC0
FFFFC0
0C1C00
0C1800
0C1800
0C1800
0C1800
1C1800
1C3800
183800
ENDCHAR

STARTCHAR dollar
ENCODING 36
SWIDTH 620 0
DWIDTH 24 0
BBX 20 34 1 -4
BITMAP
006000
006000
006000
006000
03F000
0FFCC0
1C6FC0
3863C0
7061C0
7060E0
706060
706060
786020
3E6000
1FE000
0FF000
03FE00
007F80
006FC0
0063E0
C060F0
E060F0
606070
706070
706070
7860F0
7C61E0
3763C0
33FF80
00FC00
006000
006000
006000
006000
ENDCHAR

STARTCHAR percent
ENCODING 37
SWIDTH 900 0
DWIDTH 34 0
BBX 32 26 1 0
BITMAP
0F8001C0
38E00180
70700300
60300700
60380600
E0380C00
E0381C00
E0381800
E0383000
60387000
60306000
7070C000
38E0C000
0F8181F8
0003038C
0003070E
00060606
000C0E07
000C0E07
00180E07
00380E07
00300E07
00600606
00E0070E
00C0039C
018001F0
ENDCHAR

STARTCHAR ampersand
ENCODING 38
SWIDTH 800 0
DWIDTH 30 0
BBX 28 26 2 0
BITMAP
01F00000
07FC0000
0E0E0000
0C070000
1C070000
1C070000
1C070000
0E0E0000
071C0000
01F87FC0
07F07FC0
1E3C0E00
3C1E0C00
780F0C00
700F0C00
E0079800
E003D800
E003D9E0
E001F1F0
F001F1F0
F000E070
7800F030
7C03F830
3E0F3C60
0FFE1FE0
03F00F80
ENDCHAR

STARTCHAR quoteright
ENCODING 39
SWIDTH 220 0
DWIDTH 8 0
BBX 6 11 1 16
BITMAP
78
7C
7C
7C
0C
0C
18
38
70
E0
40
ENDCHAR

STARTCHAR parenleft
ENCODING 40
SWIDTH 300 0
DWIDTH 11 0
BBX 7 36 4 -9
BITMAP
06
0C
1C
18
38
30
70
70
70
F0
F0
F0
E0
E0
E0
E0
E0
E0
E0
E0
E0
E0
E0
E0
F0
F0
70
70
70
70
38
38
18
0C
0E
04
ENDCHAR

STARTCHAR parenright
ENCODING 41
SWIDTH 300 0
DWIDTH 11 0
BBX 7 36 1 -9
BITMAP
C0
60
70
30
38
18
1C
1C
1C
1E
0E
0E
0E
0E
0E
0E
0E
0E
0E
0E
0E
0E
0E
0E
0E
1E
1E
1C
1C
1C
38
38
30
70
E0
40
ENDCHAR

STARTCHAR asterisk
ENCODING 42
SWIDTH 440 0
DWIDTH 17 0
BBX 13 13 2 13
BITMAP
0700
0700
0700
0200
E278
FAF8
7FF0
0700
0D80
1DC0
38E0
38E0
1040
ENDCHAR

STARTCHAR plus
ENCODING 43
SWIDTH 600 0
DWIDTH 23 0
BBX 18 18 2 4
BITMAP
00C000
00C000
00C000
00C000
00C000
00C000
00C000
00C000
FFFFC0
FFFFC0
00C000
00C000
00C000
00C000
00C000
00C000
00C000
00C000
ENDCHAR

STARTCHAR comma
ENCODING 44
SWIDTH 320 0
DWIDTH 12 0
BBX 6 11 3 -7
BITMAP
78
7C
7C
7C
0C
0C
18
38
70
E0
40
ENDCHAR

STARTCHAR minus
ENCODING 45
SWIDTH 600 0
DWIDTH 23 0
BBX 18 2 2 12
BITMAP
FFFFC0
FFFFC0
ENDCHAR

STARTCHAR period
ENCODING 46
SWIDTH 320 0
DWIDTH 12 0
BBX 5 5 4 0
BITMAP
70
F8
F8
F8
20
ENDCHAR

STARTCHAR slash
ENCODING 47
SWIDTH 600 0
DWIDTH 23 0
BBX 16 35 3 -8
BITMAP
000F
000E
000E
001C
001C
001C
0038
0038
0030
0070
0070
0060
00E0
00E0
00C0
01C0
01C0
0380
0380
0380
0700
0700
0700
0E00
0E00
0C00
1C00
1C00
1800
3800
3800
7000
7000
7000
E000
ENDCHAR

STARTCHAR zero
ENCODING 48
SWIDTH 620 0
DWIDTH 24 0
BBX 20 26 2 0
BITMAP
01F800
07FE00
0F0700
1C0380
3C01C0
3801C0
7801E0
7000E0
7000E0
F000F0
F000F0
F000F0
F000F0
F000F0
F000F0
F000F0
7000F0
7000E0
7000E0
7801E0
3801C0
3C03C0
1C0380
0F0F00
07FE00
01F800
ENDCHAR

STARTCHAR one
ENCODING 49
SWIDTH 620 0
DWIDTH 24 0
BBX 12 26 6 0
BITMAP
0300
0F00
FF00
FF00
0700
0700
0700
0700
0700
0700
0700
0700
0700
0700
0700
0700
0700
0700
0700
0700
0700
0700
0700
0700
FFF0
FFF0
ENDCHAR

STARTCHAR two
ENCODING 50
SWIDTH 620 0
DWIDTH 24 0
BBX 18 27 3 -1
BITMAP
03F800
0FFE00
3C1F00
300F80
600780
6003C0
C003C0
C003C0
C003C0
C003C0
000380
000780
000700
000F00
001E00
003C00
007800
00F000
01C000
038000
0700C0
1C00C0
3000C0
7FFF80
FFFF80
FFFF80
000080
ENDCHAR

STARTCHAR three
ENCODING 51
SWIDTH 620 0
DWIDTH 24 0
BBX 19 26 2 0
BITMAP
03F800
0FFE00
1E1F00
380780
3003C0
6003C0
6003C0
0003C0
000380
000700
001E00
01F800
01FE00
000F80
0003C0
0003C0
0001E0
0001E0
C001E0
E001E0
F001C0
F003C0
780780
3C0F00
1FFE00
03F000
ENDCHAR

STARTCHAR four
ENCODING 52
SWIDTH 620 0
DWIDTH 24 0
BBX 20 26 2 0
BITMAP
000E00
001E00
003E00
006E00
00EE00
01CE00
038E00
070E00
060E00
0C0E00
180E00
300E00
700E00
E00E00
800E00
FFFFF0
FFFFF0
000E00
000E00
000E00
000E00
000E00
000E00
000E00
000E00
000E00
ENDCHAR

STARTCHAR five
ENCODING 53
SWIDTH 620 0
DWIDTH 24 0
BBX 18 27 3 0
BITMAP
000100
3FFF00
3FFF00
3FFF00
300000
300000
200000
600000
600000
600000
6FE000
7FFC00
7FFE00
401F80
000780
0003C0
0003C0
0001C0
0001C0
0001C0
E001C0
E003C0
F00380
700700
7C1E00
1FFC00
03E000
ENDCHAR

STARTCHAR six
ENCODING 54
SWIDTH 620 0
DWIDTH 24 0
BBX 20 27 2 0
BITMAP
003F80
01FF80
03E000
0F0000
1E0000
1C0000
3C0000
380000
780000
70FC00
73FF00
F70780
F403C0
F801E0
F801E0
F000F0
F000F0
F000F0
F000F0
7000F0
7000F0
7801E0
3801E0
1C03C0
1F0780
07FF00
01F800
ENDCHAR

STARTCHAR seven
ENCODING 55
SWIDTH 620 0
DWIDTH 24 0
BBX 20 27 2 0
BITMAP
200000
3FFFF0
7FFFF0
7FFF60
6000C0
4001C0
C00180
C00300
000700
000E00
000C00
001C00
003800
003800
007000
007000
00F000
00E000
00E000
01E000
01C000
01C000
03C000
03C000
03C000
03C000
038000
ENDCHAR

STARTCHAR eight
ENCODING 56
SWIDTH 620 0
DWIDTH 24 0
BBX 19 26 2 0
BITMAP
03F800
0FFE00
1C0780
380380
3001C0
7001C0
7001C0
7001C0
380380
3E0700
1FDE00
0FF800
03FE00
0F7F80
3C1FC0
7807C0
7001E0
E000E0
E000E0
E000E0
E000E0
7001C0
7803C0
3C0780
0FFE00
03F800
ENDCHAR

STARTCHAR nine
ENCODING 57
SWIDTH 620 0
DWIDTH 24 0
BBX 20 27 1 -1
BITMAP
01F800
0FFE00
1E0780
3C03C0
7801C0
7801E0
7000E0
F000E0
F000F0
F000F0
F000F0
F000F0
7801F0
7801F0
3C0370
1E0EF0
0FFCF0
03F0E0
0000E0
0001C0
0001C0
000380
000780
000F00
007C00
1FF800
1FC000
ENDCHAR

STARTCHAR colon
ENCODING 58
SWIDTH 320 0
DWIDTH 12 0
BBX 5 18 4 0
BITMAP
70
F8
F8
78
20
00
00
00
00
00
00
00
00
20
F8
F8
F8
20
ENDCHAR

STARTCHAR semicolon
ENCODING 59
SWIDTH 320 0
DWIDTH 12 0
BBX 6 25 3 -7
BITMAP
38
7C
7C
7C
38
00
00
00
00
00
00
00
00
00
78
7C
7C
7C
0C
0C
18
38
70
E0
40
ENDCHAR

STARTCHAR less
ENCODING 60
SWIDTH 600 0
DWIDTH 23 0
BBX 16 17 3 3
BITMAP
0001
0007
001F
00FC
03F0
0FC0
3E00
E800
F000
FC00
1F00
07E0
01F8
007E
000F
0003
0001
ENDCHAR

STARTCHAR equal
ENCODING 61
SWIDTH 600 0
DWIDTH 23 0
BBX 18 8 2 9
BITMAP
FFFFC0
FFFFC0
000000
000000
000000
000000
FFFFC0
FFFFC0
ENDCHAR

STARTCHAR greater
ENCODING 62
SWIDTH 600 0
DWIDTH 23 0
BBX 17 17 3 3
BITMAP
C00000
F00000
FC0000
3F0000
07E000
01F800
007E00
000B80
000780
001F00
00FC00
03F000
0FC000
7E0000
F80000
E00000
800000
ENDCHAR

STARTCHAR question
ENCODING 63
SWIDTH 540 0
DWIDTH 21 0
BBX 18 26 1 0
BITMAP
0FE000
3FFC00
7C1F00
F80780
F00380
6003C0
0001C0
0001C0
0001C0
0003C0
0003C0
000780
001F80
07FF00
07FC00
07C000
060000
060000
060000
060000
000000
020000
0F8000
0F8000
0F8000
030000
ENDCHAR

STARTCHAR at
ENCODING 64
SWIDTH 820 0
DWIDTH 31 0
BBX 33 35 0 -8
BITMAP
0003FC0000
001C038000
007000C000
00C0002000
0380001000
0700000800
0E00000C00
0C00000400
1800000400
3800F38600
30038B0200
30060B0200
600E0F0200
601C0E0200
40180E0200
C0380E0200
C0700E0200
C0701C0600
C0E01C0400
C0E03C0C00
C0E0180800
C0E0581800
40E0B83000
60F3386000
607E38C180
203C1F0300
3000000200
1000000600
1800000C00
0C00001800
0600003000
0300006000
00C001C000
00380F0000
000FF80000
ENDCHAR

STARTCHAR A
ENCODING 65
SWIDTH 680 0
DWIDTH 26 0
BBX 26 26 0 0
BITMAP
001E0000
001E0000
001E0000
00370000
00370000
00678000
00678000
00638000
00C3C000
00C3C000
01C1C000
0181E000
0180E000
0300F000
03FFF000
03FFF000
06007800
06007800
0E003800
0C003C00
0C003C00
1C001E00
18001E00
38001F00
FF007FC0
FF007FC0
ENDCHAR

STARTCHAR B
ENCODING 66
SWIDTH 740 0
DWIDTH 28 0
BBX 25 26 1 0
BITMAP
FFFFE000
3FFFF800
0E003E00
0E001E00
0E000F00
0E000F00
0E000F00
0E000F00
0E000E00
0E001E00
0E007C00
0FFFF000
0FFFF800
0E003E00
0E001F00
0E000F00
0E000780
0E000780
0E000780
0E000780
0E000780
0E000F00
0E001F00
1E007E00
FFFFF800
FFFFE000
ENDCHAR

STARTCHAR C
ENCODING 67
SWIDTH 740 0
DWIDTH 28 0
BBX 25 26 2 0
BITMAP
007F0C00
01FFEC00
07C0FC00
0F003E00
1E001E00
3C000E00
3C000600
78000700
78000300
F0000000
F0000000
F0000000
F0000000
F0000000
F0000000
F0000000
F8000000
78000000
78000000
3C000180
3E000300
1F000E00
0F801C00
07E0F800
03FFF000
007F8000
ENDCHAR

STARTCHAR D
ENCODING 68
SWIDTH 800 0
DWIDTH 30 0
BBX 27 26 1 0
BITMAP
FFFFC000
FFFFF000
0E00FC00
0E001E00
0E000F00
0E000780
0E000780
0E0003C0
0E0003C0
0E0001E0
0E0001E0
0E0001E0
0E0001E0
0E0001E0
0E0001E0
0E0001E0
0E0001E0
0E0003C0
0E0003C0
0E0003C0
0E000780
0E000F00
0E001F00
1E007C00
FFFFF800
FFFFC000
ENDCHAR

STARTCHAR E
ENCODING 69
SWIDTH 720 0
DWIDTH 27 0
BBX 25 26 2 0
BITMAP
FFFFF800
3FFFFC00
0E003C00
0E000E00
0E000600
0E000600
0E000300
0E030000
0E030000
0E030000
0E070000
0FFF0000
0FFF0000
0E070000
0E030000
0E030000
0E030000
0E030180
0E000380
0E000300
0E000700
0E000F00
0E001E00
1E007E00
FFFFFE00
FFFFFC00
ENDCHAR

STARTCHAR F
ENCODING 70
SWIDTH 640 0
DWIDTH 24 0
BBX 21 26 3 0
BITMAP
FFFFE0
FFFFF0
1C00F0
1C0070
1C0038
1C0018
1C0018
1C0600
1C0600
1C0600
1C0600
1C0E00
1FFE00
1FFE00
1C0E00
1C0600
1C0600
1C0600
1C0600
1C0000
1C0000
1C0000
1C0000
3E0000
FF8000
FF8000
ENDCHAR

STARTCHAR G
ENCODING 71
SWIDTH 800 0
DWIDTH 30 0
BBX 27 26 2 0
BITMAP
007F0C00
01FFEC00
07E0FC00
0F803E00
1E001E00
3E000E00
3C000600
78000300
78000300
78000000
F0000000
F0000000
F0000000
F0007FE0
F0007FE0
F0000F80
F8000700
78000700
78000700
3C000700
3E000700
1F000F00
0F801F00
07E07B00
01FFF300
007F8300
ENDCHAR

STARTCHAR H
ENCODING 72
SWIDTH 800 0
DWIDTH 30 0
BBX 26 26 2 0
BITMAP
FFC07FC0
FFC07FC0
3E001F00
1C000E00
1C000E00
1C000E00
1C000E00
1C000E00
1C000E00
1C000E00
1C000E00
1C000E00
1FFFFE00
1FFFFE00
1C000E00
1C000E00
1C000E00
1C000E00
1C000E00
1C000E00
1C000E00
1C000E00
1C000E00
3E000E00
FFC07FC0
FFC07FC0
ENDCHAR

STARTCHAR I
ENCODING 73
SWIDTH 340 0
DWIDTH 13 0
BBX 9 26 2 0
BITMAP
FF80
FF80
3E00
1C00
1C00
1C00
1C00
1C00
1C00
1C00
1C00
1C00
1C00
1C00
1C00
1C00
1C00
1C00
1C00
1C00
1C00
1C00
1C00
3E00
FF80
FF80
ENDCHAR

STARTCHAR J
ENCODING 74
SWIDTH 600 0
DWIDTH 23 0
BBX 21 26 0 0
BITMAP
000FF8
000FF8
0003E0
0001C0
0001C0
0001C0
0001C0
0001C0
0001C0
0001C0
0001C0
0001C0
0001C0
0001C0
0001C0
0001C0
2001C0
7001C0
F001C0
F001C0
F003C0
7003C0
780780
3C1F00
1FFE00
03F000
ENDCHAR

STARTCHAR K
ENCODING 75
SWIDTH 720 0
DWIDTH 27 0
BBX 25 26 2 0
BITMAP
FFC1FF00
FFC1FF00
3E007800
1C00E000
1C01C000
1C038000
1C030000
1C060000
1C0C0000
1C180000
1C300000
1C700000
1CF80000
1DBC0000
1F3E0000
1E1E0000
1E0F0000
1C078000
1C07C000
1C03E000
1C01E000
1C00F000
1C00F800
3E007C00
FFC3FF80
FFC3FF80
ENDCHAR

STARTCHAR L
ENCODING 76
SWIDTH 600 0
DWIDTH 23 0
BBX 21 26 2 0
BITMAP
FFC000
FFC000
1E0000
1C0000
1C0000
1C0000
1C0000
1C0000
1C0000
1C0000
1C0000
1C0000
1C0000
1C0000
1C0000
1C0000
1C0000
1C0010
1C0018
1C0030
1C0030
1C0070
1C01E0
1C07E0
FFFFE0
FFFFC0
ENDCHAR

STARTCHAR M
ENCODING 77
SWIDTH 920 0
DWIDTH 35 0
BBX 31 26 1 0
BITMAP
FF8001FE
FF8001FE
0F8001F8
0DC003B0
0DC00370
0DE00370
0DE00770
0CE00670
0CF00670
0CF00C70
0C700C70
0C781C70
0C381870
0C3C1870
0C3C3870
0C1C3070
0C1E3070
0C1E6070
0C0E6070
0C0FE070
0C07C070
0C07C070
0C07C070
1E0380F8
FFC383FE
FFC303FE
ENDCHAR

STARTCHAR N
ENCODING 78
SWIDTH 740 0
DWIDTH 28 0
BBX 24 26 2 0
BITMAP
FF00FF
FF00FF
1F803C
1B8018
1BC018
19E018
19E018
18F018
187018
187818
183C18
183C18
181E18
180E18
180F18
180798
180798
1803D8
1801D8
1801F8
1800F8
1800F8
180078
3C0038
FF0038
FF0018
ENDCHAR

STARTCHAR O
ENCODING 79
SWIDTH 800 0
DWIDTH 30 0
BBX 26 26 2 0
BITMAP
007F8000
01FFF000
07C07800
0F003C00
1E001E00
3C000F00
38000780
78000780
78000780
F00003C0
F00003C0
F00003C0
F00003C0
F00003C0
F00003C0
F00003C0
F00003C0
78000780
78000780
38000F00
3C000F00
1E001E00
0F003C00
07C0F800
01FFE000
003F0000
ENDCHAR

STARTCHAR P
ENCODING 80
SWIDTH 620 0
DWIDTH 24 0
BBX 22 26 1 0
BITMAP
FFFF80
FFFFE0
0E01F0
0E0078
0E0078
0E003C
0E003C
0E003C
0E003C
0E003C
0E0078
0E0078
0E01F0
0FFFE0
0FFF80
0E0000
0E0000
0E0000
0E0000
0E0000
0E0000
0E0000
0E0000
1F0000
FFC000
FFC000
ENDCHAR

STARTCHAR Q
ENCODING 81
SWIDTH 820 0
DWIDTH 31 0
BBX 27 33 2 -7
BITMAP
003FC000
01FFF000
07C07C00
0F801E00
1E000F00
3C000780
3C000780
780003C0
780003C0
780001E0
F00001E0
F00001E0
F00001E0
F00001E0
F00001E0
F00001E0
F00001E0
780003E0
780003C0
780003C0
3C000780
1E000F80
1E001F00
0F803E00
03E0F800
00FFF000
001F0000
000E0000
000E0000
000F0080
0007C780
0007FF00
0001FC00
ENDCHAR

STARTCHAR R
ENCODING 82
SWIDTH 720 0
DWIDTH 27 0
BBX 25 26 2 0
BITMAP
FFFFC000
FFFFF000
1C00F800
1C003C00
1C001E00
1C001E00
1C001E00
1C001E00
1C001E00
1C003C00
1C003C00
1C00F800
1FFFF000
1FFF8000
1C3C0000
1C1E0000
1C0F0000
1C078000
1C07C000
1C03E000
1C01F000
1C00F000
1C007800
3E003C00
FFC03F80
FFC01F80
ENDCHAR

STARTCHAR S
ENCODING 83
SWIDTH 660 0
DWIDTH 25 0
BBX 21 26 2 0
BITMAP
03F840
0FFEE0
1E0FE0
3803E0
7000E0
7000F0
700070
780030
7C0020
3E0000
3FC000
0FFC00
03FF80
00FFE0
000FF0
0001F0
C00078
E00078
600038
700038
780038
7C0070
7E00F0
3783E0
33FF80
20FE00
ENDCHAR

STARTCHAR T
ENCODING 84
SWIDTH 620 0
DWIDTH 24 0
BBX 25 27 -1 0
BITMAP
10000400
1FFFFC00
3FFFFE00
3C1C1E00
381C0700
701C0700
601C0300
E01C0180
001C0000
001C0000
001C0000
001C0000
001C0000
001C0000
001C0000
001C0000
001C0000
001C0000
001C0000
001C0000
001C0000
001C0000
001C0000
001C0000
003E0000
00FFC000
00FFC000
ENDCHAR

STARTCHAR U
ENCODING 85
SWIDTH 780 0
DWIDTH 30 0
BBX 27 26 1 0
BITMAP
FFE01FE0
FFE01FE0
1F000780
0E000300
0E000300
0E000300
0E000300
0E000300
0E000300
0E000300
0E000300
0E000300
0E000300
0E000300
0E000300
0E000300
0E000300
0E000300
0E000300
0F000700
0F000600
07800E00
03C01C00
01F0F800
00FFF000
003FC000
ENDCHAR

STARTCHAR V
ENCODING 86
SWIDTH 700 0
DWIDTH 27 0
BBX 27 26 0 0
BITMAP
FFC01FE0
FFC01FE0
3E000700
1E000700
1E000600
0F000E00
0F000C00
07000C00
07801C00
07801800
03C03800
03C03000
01C03000
01E07000
01E06000
00F06000
00F0C000
0070C000
0079C000
00798000
00398000
003D0000
001F0000
001F0000
001E0000
000E0000
ENDCHAR

STARTCHAR W
ENCODING 87
SWIDTH 960 0
DWIDTH 36 0
BBX 35 26 1 0
BITMAP
FF8FF81FE0
FF8FF81FE0
3C03E00380
3C01E00300
1C01E00700
1E00E00700
1E00F00600
0E00F00600
0F00F00E00
0F01F80C00
0701F80C00
0781B81C00
0783BC1800
03833C1800
03833C3800
03C71C3000
03C61E3000
01C61E7000
01EE0E6000
01EC0F6000
00EC0F6000
00FC07C000
00F807C000
007807C000
0078038000
0070038000
ENDCHAR

STARTCHAR X
ENCODING 88
SWIDTH 720 0
DWIDTH 27 0
BBX 27 26 0 0
BITMAP
7FE03FC0
7FE03FC0
0F800F00
07800E00
03C01C00
03E03800
01E07000
00F0E000
0078C000
007D8000
003F8000
001E0000
000F0000
001F8000
001BC000
0033C000
0061E000
00E0F000
01C0F800
03807800
07003C00
06001E00
0E001F00
1C000F80
FF007FE0
FF007FE0
ENDCHAR

STARTCHAR Y
ENCODING 89
SWIDTH 640 0
DWIDTH 24 0
BBX 24 26 0 0
BITMAP
FFC0FF
FFC0FF
1E001C
1E0038
0F0030
0F0070
078060
03C0C0
03C1C0
01E180
01E380
00F300
00F600
007E00
007C00
003C00
003C00
003C00
003C00
003C00
003C00
003C00
003C00
003C00
01FF80
01FF80
ENDCHAR

STARTCHAR Z
ENCODING 90
SWIDTH 640 0
DWIDTH 24 0
BBX 23 26 1 0
BITMAP
1FFFFC
1FFFFC
3E0078
3800F0
7001E0
6003E0
E003C0
200780
000F00
001F00
003E00
003C00
007800
00F800
01F000
01E000
03C000
07C004
0F8006
0F000C
1E001C
3E001C
7C0078
7801F8
FFFFF8
FFFFF0
ENDCHAR

STARTCHAR bracketleft
ENCODING 91
SWIDTH 300 0
DWIDTH 11 0
BBX 6 36 4 -9
BITMAP
FC
FC
E0
E0
E0
E0
E0
E0
E0
E0
E0
E0
E0
E0
E0
E0
E0
E0
E0
E0
E0
E0
E0
E0
E0
E0
E0
E0
E0
E0
E0
E0
E0
E0
FC
FC
ENDCHAR

STARTCHAR backslash
ENCODING 92
SWIDTH 600 0
DWIDTH 23 0
BBX 16 35 4 -8
BITMAP
F000
7000
7000
3800
3800
3800
1C00
1C00
1C00
0E00
0E00
0600
0700
0700
0300
0380
0380
0180
01C0
01C0
00E0
00E0
00E0
0070
0070
0070
0038
0038
0018
001C
001C
000C
000E
000E
0007
ENDCHAR

STARTCHAR bracketright
ENCODING 93
SWIDTH 300 0
DWIDTH 11 0
BBX 6 36 2 -9
BITMAP
FC
FC
1C
1C
1C
1C
1C
1C
1C
1C
1C
1C
1C
1C
1C
1C
1C
1C
1C
1C
1C
1C
1C
1C
1C
1C
1C
1C
1C
1C
1C
1C
1C
1C
FC
FC
ENDCHAR

STARTCHAR asciicircum
ENCODING 94
SWIDTH 600 0
DWIDTH 23 0
BBX 19 15 2 11
BITMAP
00E000
01F000
01F000
03B800
033800
071C00
0E0C00
0E0E00
1C0600
1C0700
380380
300380
7001C0
6001C0
E000E0
ENDCHAR

STARTCHAR underscore
ENCODING 95
SWIDTH 500 0
DWIDTH 19 0
BBX 19 2 0 -5
BITMAP
FFFFE0
FFFFE0
ENDCHAR

STARTCHAR quoteleft
ENCODING 96
SWIDTH 220 0
DWIDTH 8 0
BBX 6 11 1 16
BITMAP
08
1C
38
70
60
C0
C0
F8
F8
F8
70
ENDCHAR

STARTCHAR a
ENCODING 97
SWIDTH 580 0
DWIDTH 22 0
BBX 20 18 2 0
BITMAP
03F000
1FFC00
3C0E00
780700
780700
700700
300700
001F00
07FF00
3F8700
7C0700
F00700
E00700
E00700
F01F00
F87780
7FC3F0
1F00F0
ENDCHAR

STARTCHAR b
ENCODING 98
SWIDTH 620 0
DWIDTH 24 0
BBX 21 27 1 0
BITMAP
0C0000
FC0000
FC0000
1C0000
1C0000
1C0000
1C0000
1C0000
1C0000
1C7F00
1DFFC0
1F83E0
1E01E0
1C00F0
1C0070
1C0078
1C0078
1C0078
1C0078
1C0078
1C0078
1C00F0
1E00F0
1E01E0
1D83C0
19FF80
187E00
ENDCHAR

STARTCHAR c
ENCODING 99
SWIDTH 520 0
DWIDTH 20 0
BBX 18 18 1 0
BITMAP
01F800
0FFE00
1E0F00
3C0780
780380
700380
700000
F00000
F00000
F00000
F00000
700000
780000
7801C0
3C0380
1E0700
0FFC00
03F000
ENDCHAR

STARTCHAR d
ENCODING 100
SWIDTH 620 0
DWIDTH 24 0
BBX 21 27 1 0
BITMAP
0000C0
0007C0
000FC0
0001C0
0001C0
0001C0
0001C0
0001C0
0001C0
03F1C0
0FFDC0
1E0FC0
3C03C0
7803C0
7801C0
7001C0
F001C0
F001C0
F001C0
F001C0
7001C0
7801C0
7801C0
3C07C0
3E1DC0
0FF9F8
07E1F8
ENDCHAR

STARTCHAR e
ENCODING 101
SWIDTH 520 0
DWIDTH 20 0
BBX 17 18 1 0
BITMAP
03F000
0FFC00
1E0E00
380700
780700
700380
7FFF80
FFFF80
F00000
F00000
F00000
700000
780000
780180
3C0380
1E0E00
0FFC00
03F000
ENDCHAR

STARTCHAR f
ENCODING 102
SWIDTH 320 0
DWIDTH 12 0
BBX 14 27 2 0
BITMAP
01F0
07FC
0E3C
1C1C
1C00
1C00
1C00
1C00
1C00
FFC0
FFC0
1C00
1C00
1C00
1C00
1C00
1C00
1C00
1C00
1C00
1C00
1C00
1C00
1C00
1C00
FF80
FF80
ENDCHAR

STARTCHAR g
ENCODING 103
SWIDTH 540 0
DWIDTH 21 0
BBX 20 26 1 -8
BITMAP
01F060
0FFFF0
1E0FE0
1C0700
380380
380380
380380
380380
3C0700
1E0F00
0FFC00
19F000
300000
700000
7F0000
3FFE00
0FFFC0
183FE0
3001F0
700070
E00070
E00070
F000E0
7803C0
3FFF80
07FC00
ENDCHAR

STARTCHAR h
ENCODING 104
SWIDTH 660 0
DWIDTH 25 0
BBX 22 27 2 0
BITMAP
1C0000
FC0000
FC0000
1C0000
1C0000
1C0000
1C0000
1C0000
1C0000
1C3F80
1CFFC0
1DC3E0
1F01E0
1E00E0
1C00E0
1C00E0
1C00E0
1C00E0
1C00E0
1C00E0
1C00E0
1C00E0
1C00E0
1C00E0
1C00E0
FF87FC
FF87FC
ENDCHAR

STARTCHAR i
ENCODING 105
SWIDTH 300 0
DWIDTH 11 0
BBX 9 27 2 0
BITMAP
3C00
3C00
3C00
1C00
0000
0000
0000
0000
0C00
7C00
FC00
1C00
1C00
1C00
1C00
1C00
1C00
1C00
1C00
1C00
1C00
1C00
1C00
1C00
1C00
FF80
FF80
ENDCHAR

STARTCHAR j
ENCODING 106
SWIDTH 300 0
DWIDTH 11 0
BBX 11 35 -3 -9
BITMAP
01E0
01E0
01E0
00C0
0000
0000
0000
0000
0060
03E0
07E0
00E0
00E0
00E0
00E0
00E0
00E0
00E0
00E0
00E0
00E0
00E0
00E0
00E0
00E0
00E0
00E0
00E0
00E0
00E0
00E0
E0C0
F1C0
FF80
3E00
ENDCHAR

STARTCHAR k
ENCODING 107
SWIDTH 620 0
DWIDTH 24 0
BBX 22 27 1 0
BITMAP
1C0000
FC0000
FC0000
1C0000
1C0000
1C0000
1C0000
1C0000
1C0000
1C0FFC
1C0FFC
1C03C0
1C0780
1C0E00
1C1C00
1C2800
1CF000
1DF000
1F3800
1E3C00
1C1E00
1C0F00
1C0780
1C03C0
3C01E0
FF8FFC
FF8FFC
ENDCHAR

STARTCHAR l
ENCODING 108
SWIDTH 300 0
DWIDTH 11 0
BBX 9 27 1 0
BITMAP
1C00
FC00
FC00
1C00
1C00
1C00
1C00
1C00
1C00
1C00
1C00
1C00
1C00
1C00
1C00
1C00
1C00
1C00
1C00
1C00
1C00
1C00
1C00
1C00
1C00
FF80
FF80
ENDCHAR

STARTCHAR m
ENCODING 109
SWIDTH 940 0
DWIDTH 36 0
BBX 33 18 1 0
BITMAP
0C3F03F000
FCFF8FF800
FDC3DC3C00
1F01F01C00
1E01E01C00
1E01C01C00
1E01C01C00
1E01C01C00
1E01C01C00
1E01C01C00
1E01C01C00
1E01C01C00
1E01C01C00
1E01C01C00
1E01C01C00
1E01C01C00
FF8FF8FF80
FF8FF8FF80
ENDCHAR

STARTCHAR n
ENCODING 110
SWIDTH 660 0
DWIDTH 25 0
BBX 22 18 2 0
BITMAP
1C3F80
FCFFC0
FDC3E0
1F01E0
1E00E0
1C00E0
1C00E0
1C00E0
1C00E0
1C00E0
1C00E0
1C00E0
1C00E0
1C00E0
1C00E0
1C00E0
FF87FC
FF87FC
ENDCHAR

STARTCHAR o
ENCODING 111
SWIDTH 560 0
DWIDTH 21 0
BBX 19 18 1 0
BITMAP
03F800
0FFE00
1E0F00
3C0780
7803C0
7001C0
7001E0
F001E0
F001E0
F001E0
F001E0
7001E0
7001C0
7803C0
3C0780
1E0F00
0FFE00
01F000
ENDCHAR

STARTCHAR p
ENCODING 112
SWIDTH 620 0
DWIDTH 24 0
BBX 21 26 1 -8
BITMAP
0C3F00
FCFFC0
FDC3E0
1F01F0
1C00F0
1C0070
1C0078
1C0078
1C0078
1C0078
1C0078
1C0070
1C00F0
1E00F0
1E01E0
1F83C0
1DFF80
1C7E00
1C0000
1C0000
1C0000
1C0000
1C0000
1C0000
FF8000
FF8000
ENDCHAR

STARTCHAR q
ENCODING 113
SWIDTH 580 0
DWIDTH 22 0
BBX 21 26 1 -8
BITMAP
03F0C0
0FFCC0
1E0EC0
3C03C0
7803C0
7801C0
7001C0
F001C0
F001C0
F001C0
F001C0
7001C0
7801C0
7801C0
3C03C0
1E0EC0
0FFDC0
07E1C0
0001C0
0001C0
0001C0
0001C0
0001C0
0001C0
000FF8
000FF8
ENDCHAR

STARTCHAR r
ENCODING 114
SWIDTH 440 0
DWIDTH 17 0
BBX 15 18 2 0
BITMAP
0C3C
7CFE
FDFE
1D0C
1E00
1C00
1C00
1C00
1C00
1C00
1C00
1C00
1C00
1C00
1C00
1C00
FF80
FF80
ENDCHAR

STARTCHAR s
ENCODING 115
SWIDTH 520 0
DWIDTH 20 0
BBX 16 18 2 0
BITMAP
0FC8
1FF4
383C
701C
700E
7806
3E00
3FC0
0FF0
01FC
007E
C00F
6007
7007
7807
3C0E
37FC
31F0
ENDCHAR

STARTCHAR t
ENCODING 116
SWIDTH 380 0
DWIDTH 14 0
BBX 12 24 2 0
BITMAP
0400
0C00
0C00
0C00
1C00
3C00
FFF0
FFF0
1C00
1C00
1C00
1C00
1C00
1C00
1C00
1C00
1C00
1C00
1C00
1C00
1C00
1E10
0FF0
07C0
ENDCHAR

STARTCHAR u
ENCODING 117
SWIDTH 680 0
DWIDTH 26 0
BBX 24 18 1 0
BITMAP
3E00F8
FE03F8
1E0078
0E0038
0E0038
0E0038
0E0038
0E0038
0E0038
0E0038
0E0038
0E0038
0E0038
0E0078
0F01F8
0787BC
03FE3F
01F83F
ENDCHAR

STARTCHAR v
ENCODING 118
SWIDTH 520 0
DWIDTH 20 0
BBX 20 18 0 0
BITMAP
FF87F0
FF87F0
3C01C0
1C01C0
1E0180
0E0180
0F0300
070300
078600
038600
038600
03CC00
01CC00
01F800
00F800
00F000
00F000
006000
ENDCHAR

STARTCHAR w
ENCODING 119
SWIDTH 780 0
DWIDTH 30 0
BBX 30 18 0 0
BITMAP
FF9FF1FC
FF9FF1FC
3C078070
1E038070
1E03C060
0E03C060
0F03C0C0
0706E0C0
0706E0C0
0784F180
038C7180
03CC7300
01D87B00
01D83B00
01F03E00
00F01E00
00F01C00
00601C00
ENDCHAR

STARTCHAR x
ENCODING 120
SWIDTH 560 0
DWIDTH 21 0
BBX 21 18 0 0
BITMAP
7FC7F8
7FC7F8
1F01C0
0F0380
078700
03C600
01EC00
00F000
007800
007C00
00DE00
018E00
030F00
060780
0C03C0
3C03E0
FF0FF8
FF0FF8
ENDCHAR

STARTCHAR y
ENCODING 121
SWIDTH 540 0
DWIDTH 21 0
BBX 22 26 -1 -8
BITMAP
7FC3FC
7FC3FC
1E0060
0F0060
0F00C0
0700C0
078180
038180
03C180
01C300
01E300
00E600
00E600
007C00
007C00
007800
003800
001800
003000
003000
006000
006000
60C000
F98000
7F8000
3E0000
ENDCHAR

STARTCHAR z
ENCODING 122
SWIDTH 480 0
DWIDTH 18 0
BBX 17 18 1 0
BITMAP
1FFF00
3FFF00
380F00
701E00
603C00
C07800
00F000
01E000
03C000
03C000
078000
0F0100
1E0180
3C0300
780700
F01F00
FFFE00
FFFE00
ENDCHAR

STARTCHAR braceleft
ENCODING 123
SWIDTH 280 0
DWIDTH 11 0
BBX 10 34 2 -8
BITMAP
01C0
0200
0400
0C00
0C00
1C00
1C00
1C00
1E00
0E00
0E00
0E00
0E00
0C00
0800
3000
C000
6000
1000
0800
0C00
0E00
0E00
0E00
1E00
1E00
1C00
1C00
1C00
0C00
0C00
0600
0300
00C0
ENDCHAR

STARTCHAR bar
ENCODING 124
SWIDTH 600 0
DWIDTH 23 0
BBX 3 35 10 -8
BITMAP
E0
E0
E0
E0
E0
E0
E0
E0
E0
E0
E0
E0
E0
E0
E0
E0
E0
E0
E0
E0
E0
E0
E0
E0
E0
E0
E0
E0
E0
E0
E0
E0
E0
E0
E0
ENDCHAR

STARTCHAR braceright
ENCODING 125
SWIDTH 280 0
DWIDTH 11 0
BBX 10 34 0 -8
BITMAP
E000
1000
0800
0C00
0E00
0E00
0E00
0E00
1E00
1E00
1C00
1C00
0C00
0C00
0600
0300
0040
0180
0200
0400
0C00
1C00
1C00
1C00
1E00
1E00
0E00
0E00
0E00
0C00
0C00
1800
3000
C000
ENDCHAR

STARTCHAR asciitilde
ENCODING 126
SWIDTH 600 0
DWIDTH 23 0
BBX 17 7 3 9
BITMAP
000100
1E0300
7F8380
73E700
E0FE00
C03C00
400000
ENDCHAR

STARTCHAR space
ENCODING 160
SWIDTH 320 0
DWIDTH 14 0
BBX 0 0 0 0
BITMAP
ENDCHAR

STARTCHAR Aogonek
ENCODING 161
SWIDTH 680 0
DWIDTH 26 0
BBX 25 32 1 -6
BITMAP
001C0000
003E0000
003E0000
003E0000
006F0000
006F0000
00670000
00C78000
00C78000
01C38000
0183C000
0183C000
0381E000
0301E000
0300E000
07FFF000
07FFF000
0E007000
0C007800
0C007800
1C003C00
18003C00
18003C00
38001E00
FE00FF80
FE00EF80
00001800
00001000
00003000
00003180
00001F00
00000C00
ENDCHAR

STARTCHAR breve
ENCODING 162
SWIDTH 460 0
DWIDTH 17 0
BBX 12 5 3 21
BITMAP
8010
C070
7FE0
3FC0
0F00
ENDCHAR

STARTCHAR Lslash
ENCODING 163
SWIDTH 600 0
DWIDTH 23 0
BBX 21 26 2 0
BITMAP
FFC000
FFC000
1E0000
1C0000
1C0000
1C0800
1C1800
1C3800
1C7000
1CE000
1D8000
1F0000
1E0000
1C0000
3C0000
7C0000
DC0000
9C0010
9C0018
1C0030
1C0030
1C0070
1C01E0
1C07E0
FFFFE0
FFFFC0
ENDCHAR

STARTCHAR currency
ENCODING 164
SWIDTH 600 0
DWIDTH 23 0
BBX 18 18 2 4
BITMAP
400080
E3F1C0
7FFF80
1E1E00
380700
300300
700380
600180
600180
600180
600180
700380
300300
380600
3E1F00
7FFD80
E3F1C0
200080
ENDCHAR

STARTCHAR Lcaron
ENCODING 165
SWIDTH 600 0
DWIDTH 23 0
BBX 21 26 2 0
BITMAP
FFCF00
FFCF80
1E0F80
1C0F80
1C0180
1C0180
1C0300
1C0700
1C0E00
1C1C00
1C0800
1C0000
1C0000
1C0000
1C0000
1C0000
1C0000
1C0010
1C0018
1C0038
1C0030
1C0070
1C01E0
1C07E0
FFFFE0
FFFFC0
ENDCHAR

STARTCHAR Sacute
ENCODING 166
SWIDTH 660 0
DWIDTH 25 0
BBX 21 33 2 0
BITMAP
000C00
001E00
007C00
00F800
018000
000000
000000
03F840
0FFEE0
1E0FE0
3803E0
7000E0
7000F0
700070
780030
7C0020
3E0000
3FC000
0FFC00
03FF80
00FFE0
000FF0
0001F0
C00078
E00078
600038
700038
780038
7C0070
7E00F0
3783E0
33FF80
20FE00
ENDCHAR

STARTCHAR section
ENCODING 167
SWIDTH 520 0
DWIDTH 20 0
BBX 17 34 2 -8
BITMAP
07F000
1FFC00
781E00
700F00
E00700
E00700
E00700
F00000
780000
3F0000
1FF000
0FFC00
39FE00
303F00
600780
E00380
E00380
E00380
F00300
780300
7F0600
3FFE00
0FFC00
01FF00
001F00
000780
600380
E00380
E00380
F00380
700700
781E00
1FFC00
07E000
ENDCHAR

STARTCHAR dieresis
ENCODING 168
SWIDTH 420 0
DWIDTH 16 0
BBX 11 5 2 21
BITMAP
70C0
F1E0
FBE0
71C0
2080
ENDCHAR

STARTCHAR Scaron
ENCODING 169
SWIDTH 660 0
DWIDTH 25 0
BBX 21 32 2 0
BITMAP
060300
03DE00
00FC00
007000
001000
000000
03F840
0FFEE0
1E0FE0
3803E0
7000E0
7000F0
700070
780030
7C0020
3E0000
3FC000
0FFC00
03FF80
00FFE0
000FF0
0001F0
C00078
E00078
600038
700038
780038
7C0070
7E00F0
3783E0
33FF80
20FE00
ENDCHAR

STARTCHAR Scommaaccent
ENCODING 170
SWIDTH 660 0
DWIDTH 25 0
BBX 22 35 2 -9
BITMAP
03FC20
0FFF70
1E07F0
3801F0
7800F0
700078
700038
780018
7C0010
3F0000
1FE000
0FFE00
03FFC0
007FE0
000FF8
0000F8
C0007C
E0003C
60001C
70001C
78003C
7C0038
7E0078
3781F0
33FFC0
30FF00
000000
000000
003800
007C00
003C00
000C00
000800
001800
003000
ENDCHAR

STARTCHAR Tcaron
ENCODING 171
SWIDTH 620 0
DWIDTH 24 0
BBX 25 32 -1 0
BITMAP
01C1C000
00FF8000
003E0000
001C0000
00000000
10000400
1FFFFC00
3FFFFE00
3C1C1E00
381C0F00
701C0700
601C0300
E01C0180
001C0000
001C0000
001C0000
001C0000
001C0000
001C0000
001C0000
001C0000
001C0000
001C0000
001C0000
001C0000
001C0000
001C0000
001C0000
001C0000
003E0000
00FFC000
00FFC000
ENDCHAR

STARTCHAR Zacute
ENCODING 172
SWIDTH 640 0
DWIDTH 24 0
BBX 23 33 1 0
BITMAP
000E00
001E00
007E00
00F000
000000
000000
000000
1FFFFC
1FFFFC
3E0078
3800F0
7001E0
6003E0
E003C0
200780
000F00
001F00
003E00
003C00
007800
00F800
01F000
01E000
03C000
07C004
0F8006
0F000C
1E001C
3E001C
7C0078
7801F8
FFFFF8
FFFFF0
ENDCHAR

STARTCHAR hyphen
ENCODING 173
SWIDTH 400 0
DWIDTH 15 0
BBX 11 2 2 8
BITMAP
FFE0
FFE0
ENDCHAR

STARTCHAR Zcaron
ENCODING 174
SWIDTH 640 0
DWIDTH 24 0
BBX 23 32 1 0
BITMAP
038380
00FE00
007C00
001000
000000
000000
1FFFFC
1FFFFC
3E0078
3800F0
7001E0
6003E0
E003C0
200780
000F00
001F00
003E00
003C00
007800
00F800
01F000
01E000
03C000
07C004
0F8006
0F000C
1E001C
3E001C
7C0078
7801F8
FFFFF8
FFFFF0
ENDCHAR

STARTCHAR Zdotaccent
ENCODING 175
SWIDTH 640 0
DWIDTH 24 0
BBX 23 33 1 0
BITMAP
003800
003800
007C00
007C00
003800
000000
000000
1FFFFC
1FFFFC
3E0078
3800F0
7001E0
6003E0
E007C0
200780
000F00
001F00
003E00
003C00
007800
00F800
01F000
01E000
03C000
07C004
0F8006
0F000C
1E001C
3E001C
7C0078
7801F8
FFFFF8
FFFFF0
ENDCHAR

STARTCHAR degree
ENCODING 176
SWIDTH 400 0
DWIDTH 15 0
BBX 10 10 3 16
BITMAP
1E00
3F00
6180
C0C0
C0C0
C0C0
C0C0
6180
3F00
1E00
ENDCHAR

STARTCHAR aogonek
ENCODING 177
SWIDTH 580 0
DWIDTH 22 0
BBX 21 23 2 -5
BITMAP
03F000
1FFC00
3C0E00
780700
780700
700700
300700
001F00
07FF00
3FC700
780700
F00700
E00700
E00700
F01F00
F87B80
7FE3F8
1F80F0
000100
000300
000308
0003F0
0001C0
ENDCHAR

STARTCHAR ogonek
ENCODING 178
SWIDTH 320 0
DWIDTH 12 0
BBX 7 6 3 -6
BITMAP
20
40
C0
C6
FC
70
ENDCHAR

STARTCHAR lslash
ENCODING 179
SWIDTH 320 0
DWIDTH 12 0
BBX 9 27 2 0
BITMAP
1C00
FC00
FC00
1C00
1C00
1C00
1C00
1C00
1C80
1C80
1F80
1F00
1E00
1C00
3C00
FC00
DC00
9C00
1C00
1C00
1C00
1C00
1C00
1C00
1C00
FF80
FF80
ENDCHAR

STARTCHAR acute
ENCODING 180
SWIDTH 340 0
DWIDTH 13 0
BBX 7 4 3 22
BITMAP
0E
3E
7E
E0
ENDCHAR

STARTCHAR lcaron
ENCODING 181
SWIDTH 357 0
DWIDTH 14 0
BBX 12 28 1 0
BITMAP
0CC0
7DE0
FCF0
1CF0
1C30
1C20
1C60
1DC0
1C80
1C00
1C00
1C00
1C00
1C00
1C00
1C00
1C00
1C00
1C00
1C00
1C00
1C00
1C00
1C00
1C00
1C00
FF80
FF80
ENDCHAR

STARTCHAR sacute
ENCODING 182
SWIDTH 520 0
DWIDTH 20 0
BBX 16 26 2 0
BITMAP
0060
00F0
03F0
07C0
0C00
0000
0000
0000
07C8
1FF4
383C
701C
700E
7806
3E00
3FC0
0FF0
01FC
007E
C00F
6007
7007
7807
3C0E
37FC
31F0
ENDCHAR

STARTCHAR caron
ENCODING 183
SWIDTH 420 0
DWIDTH 16 0
BBX 10 5 3 21
BITMAP
8040
E1C0
7F80
1E00
0C00
ENDCHAR

STARTCHAR commaaccent
ENCODING 184
SWIDTH 333 0
DWIDTH 13 0
BBX 4 7 5 -9
BITMAP
E0
F0
F0
30
20
60
C0
ENDCHAR

STARTCHAR scaron
ENCODING 185
SWIDTH 520 0
DWIDTH 20 0
BBX 16 25 2 0
BITMAP
1818
0F70
07E0
01C0
0000
0000
0000
07C8
1FF4
383C
701C
700E
7806
3E00
3FC0
0FF0
01FC
007E
C00F
6007
7007
7807
3C0E
37FC
31F0
ENDCHAR

STARTCHAR scommaaccent
ENCODING 186
SWIDTH 520 0
DWIDTH 20 0
BBX 16 27 2 -9
BITMAP
07CC
1FFC
383C
701C
700E
7806
3E00
1FC0
0FF0
01FC
003E
C00F
6007
7007
7807
3E0E
37FC
31F8
0000
0000
01C0
01E0
01E0
0060
0040
00C0
0180
ENDCHAR

STARTCHAR tcaron
ENCODING 187
SWIDTH 398 0
DWIDTH 15 0
BBX 13 27 1 0
BITMAP
0070
0078
0078
0418
0C10
0C30
0C60
1C40
3C00
FFF0
FFF0
1C00
1C00
1C00
1C00
1C00
1C00
1C00
1C00
1C00
1C00
1C00
1C00
1C00
1E18
0FF0
07C0
ENDCHAR

STARTCHAR zacute
ENCODING 188
SWIDTH 480 0
DWIDTH 18 0
BBX 17 26 1 0
BITMAP
007000
01F000
03E000
070000
000000
000000
000000
000000
1FFF00
3FFF00
380F00
701E00
603C00
C07800
00F000
01E000
03C000
03C000
078000
0F0100
1E0180
3C0300
780700
F01F00
FFFE00
FFFE00
ENDCHAR

STARTCHAR hungarumlaut
ENCODING 189
SWIDTH 380 0
DWIDTH 14 0
BBX 9 6 4 21
BITMAP
2100
3180
7380
6300
C600
8400
ENDCHAR

STARTCHAR zcaron
ENCODING 190
SWIDTH 480 0
DWIDTH 18 0
BBX 17 26 1 0
BITMAP
100400
1C3C00
07F000
03C000
008000
000000
000000
000000
1FFF00
3FFF00
380F00
701E00
603C00
C07800
00F000
01E000
03C000
03C000
078000
0F0100
1E0180
3C0300
780700
F01F00
FFFE00
FFFE00
ENDCHAR

STARTCHAR zdotaccent
ENCODING 191
SWIDTH 480 0
DWIDTH 18 0
BBX 17 26 1 0
BITMAP
01C000
03E000
03E000
03E000
01C000
000000
000000
000000
1FFF80
3FFF80
380F00
701E00
603C00
E07800
00F000
01E000
01E000
03C000
078000
0F0100
1E0180
3C0380
780700
780F00
FFFE00
FFFE00
ENDCHAR

STARTCHAR Racute
ENCODING 192
SWIDTH 720 0
DWIDTH 27 0
BBX 25 33 2 0
BITMAP
00070000
000F0000
003F0000
00780000
00000000
00000000
00000000
FFFFC000
FFFFF000
1C00F800
1C003C00
1C001E00
1C001E00
1C001E00
1C001E00
1C001E00
1C003C00
1C003C00
1C00F800
1FFFF000
1FFF8000
1C3C0000
1C1E0000
1C0F0000
1C078000
1C07C000
1C03E000
1C01F000
1C00F000
1C007800
3E003C00
FFC03F80
FFC01F80
ENDCHAR

STARTCHAR Aacute
ENCODING 193
SWIDTH 680 0
DWIDTH 26 0
BBX 26 33 0 0
BITMAP
00030000
000F8000
001F0000
003C0000
00400000
00000000
00000000
001E0000
001E0000
001E0000
00370000
00370000
00678000
00678000
00638000
00C3C000
00C3C000
01C1C000
0181E000
0180E000
0300F000
03FFF000
03FFF000
06007800
06007800
0E003800
0C003C00
0C003C00
1C001E00
18001E00
38001F00
FF007FC0
FF007FC0
ENDCHAR

STARTCHAR Acircumflex
ENCODING 194
SWIDTH 680 0
DWIDTH 26 0
BBX 26 33 0 0
BITMAP
00080000
001E0000
007F0000
00F3C000
00804000
00000000
00000000
001E0000
001E0000
001E0000
00370000
00370000
00678000
00678000
00638000
00C3C000
00C3C000
01C1C000
0181E000
0180E000
0300F000
03FFF000
03FFF000
06007800
06007800
0E003800
0C003C00
0C003C00
1C001E00
18001E00
38001F00
FF007FC0
FF007FC0
ENDCHAR

STARTCHAR Abreve
ENCODING 195
SWIDTH 680 0
DWIDTH 26 0
BBX 26 33 0 0
BITMAP
01002000
01C0E000
00FFC000
007F8000
001E0000
00000000
00000000
001E0000
001E0000
001E0000
00370000
00370000
00678000
00678000
00638000
00C3C000
00C3C000
01C1C000
0181E000
0180E000
0300F000
03FFF000
03FFF000
06007800
06007800
0E003800
0C003C00
0C003C00
1C001E00
18001E00
38001F00
FF007FC0
FF007FC0
ENDCHAR

STARTCHAR Adieresis
ENCODING 196
SWIDTH 680 0
DWIDTH 26 0
BBX 25 33 0 0
BITMAP
00E18000
01E3C000
01F7C000
01E3C000
00E38000
00000000
00000000
001C0000
001E0000
003E0000
00360000
006F0000
00670000
00670000
00C78000
00C38000
01C3C000
0183C000
0181C000
0301E000
0300E000
03FFE000
07FFF000
06007000
0E007800
0C007800
0C003800
1C003C00
18003C00
18001E00
38003E00
FF00FF80
FF00FF80
ENDCHAR

STARTCHAR Lacute
ENCODING 197
SWIDTH 600 0
DWIDTH 23 0
BBX 21 33 2 0
BITMAP
001C00
003C00
00FC00
01F000
020000
000000
000000
FFC000
FFC000
1E0000
1C0000
1C0000
1C0000
1C0000
1C0000
1C0000
1C0000
1C0000
1C0000
1C0000
1C0000
1C0000
1C0000
1C0000
1C0010
1C0018
1C0030
1C0030
1C0070
1C01E0
1C07E0
FFFFE0
FFFFC0
ENDCHAR

STARTCHAR Cacute
ENCODING 198
SWIDTH 740 0
DWIDTH 28 0
BBX 25 33 2 0
BITMAP
00020000
000F0000
001F0000
003E0000
00600000
00000000
00000000
007F0C00
01FFEC00
07C0FC00
0F003E00
1E001E00
3C000E00
3C000600
78000700
78000300
F0000000
F0000000
F0000000
F0000000
F0000000
F0000000
F0000000
F8000000
78000000
78000000
3C000180
3E000300
1F000E00
0F801C00
07E0F800
03FFF000
007F8000
ENDCHAR

STARTCHAR Ccedilla
ENCODING 199
SWIDTH 740 0
DWIDTH 28 0
BBX 25 33 2 -7
BITMAP
007F8400
01FFEC00
07E07E00
0F801E00
1E000E00
3E000600
3C000700
78000300
78000300
F8000000
F0000000
F0000000
F0000000
F0000000
F0000000
F0000000
F8000000
78000000
7C000000
3C000180
3E000300
1F000700
0F801E00
07F0F800
01FFF000
007F8000
00100000
003E0000
00030000
00030000
00630000
00660000
003C0000
ENDCHAR

STARTCHAR Ccaron
ENCODING 200
SWIDTH 740 0
DWIDTH 28 0
BBX 25 32 2 0
BITMAP
0180C000
00E78000
007F0000
001C0000
00080000
00000000
007F0C00
01FFEC00
07C0FC00
0F003E00
1E001E00
3C000E00
3C000600
78000700
78000300
F0000000
F0000000
F0000000
F0000000
F0000000
F0000000
F0000000
F8000000
78000000
78000000
3C000180
3E000300
1F000E00
0F801C00
07E0F800
03FFF000
007F8000
ENDCHAR

STARTCHAR Eacute
ENCODING 201
SWIDTH 720 0
DWIDTH 27 0
BBX 25 33 2 0
BITMAP
00070000
000F0000
001F0000
00780000
00000000
00000000
00000000
FFFFF800
3FFFFC00
0E003C00
0E000E00
0E000600
0E000600
0E000300
0E030000
0E030000
0E030000
0E070000
0FFF0000
0FFF0000
0E070000
0E030000
0E030000
0E030000
0E030180
0E000380
0E000300
0E000700
0E000F00
0E001E00
1E007E00
FFFFFE00
FFFFFC00
ENDCHAR

STARTCHAR Eogonek
ENCODING 202
SWIDTH 720 0
DWIDTH 27 0
BBX 25 32 1 -6
BITMAP
FFFFF800
FFFFFC00
0E003C00
0E001C00
0E000E00
0E000600
0E000300
0E030200
0E030000
0E030000
0E030000
0E070000
0FFF0000
0FFF0000
0E070000
0E030000
0E030000
0E030000
0E030180
0E000380
0E000300
0E000700
0E001F00
0E007E00
FFFFFE00
FFFFFC00
00006000
00004000
0000C000
0000C600
00007C00
00003000
ENDCHAR

STARTCHAR Edieresis
ENCODING 203
SWIDTH 720 0
DWIDTH 27 0
BBX 25 33 2 0
BITMAP
00618000
00F3C000
01F7C000
00F3C000
00E38000
00000000
00000000
FFFFF800
3FFFFC00
0E003C00
0E000E00
0E000600
0E000600
0E000300
0E030000
0E030000
0E030000
0E070000
0FFF0000
0FFF0000
0E070000
0E030000
0E030000
0E030000
0E030180
0E000380
0E000300
0E000700
0E000F00
0E001E00
1E007E00
FFFFFE00
FFFFFC00
ENDCHAR

STARTCHAR Ecaron
ENCODING 204
SWIDTH 720 0
DWIDTH 27 0
BBX 25 32 2 0
BITMAP
01C1C000
007F8000
003E0000
00080000
00000000
00000000
FFFFF800
3FFFFC00
0E003C00
0E000E00
0E000600
0E000600
0E000300
0E030000
0E030000
0E030000
0E070000
0FFF0000
0FFF0000
0E070000
0E030000
0E030000
0E030000
0E030180
0E000380
0E000300
0E000700
0E000F00
0E001E00
1E007E00
FFFFFE00
FFFFFC00
ENDCHAR

STARTCHAR Iacute
ENCODING 205
SWIDTH 340 0
DWIDTH 13 0
BBX 9 33 2 0
BITMAP
0300
0F00
1F00
7C00
4000
0000
0000
FF80
FF80
3E00
1C00
1C00
1C00
1C00
1C00
1C00
1C00
1C00
1C00
1C00
1C00
1C00
1C00
1C00
1C00
1C00
1C00
1C00
1C00
1C00
3E00
FF80
FF80
ENDCHAR

STARTCHAR Icircumflex
ENCODING 206
SWIDTH 340 0
DWIDTH 13 0
BBX 11 33 1 0
BITMAP
0400
0E00
3F80
71C0
8020
0000
0000
7FC0
7FC0
1F00
0E00
0E00
0E00
0E00
0E00
0E00
0E00
0E00
0E00
0E00
0E00
0E00
0E00
0E00
0E00
0E00
0E00
0E00
0E00
0E00
1F00
7FC0
7FC0
ENDCHAR

STARTCHAR Dcaron
ENCODING 207
SWIDTH 800 0
DWIDTH 30 0
BBX 27 32 1 0
BITMAP
00E0E000
003FC000
001F0000
00060000
00000000
00000000
FFFFC000
FFFFF000
0E00FC00
0E003E00
0E000F00
0E000780
0E000780
0E0003C0
0E0003C0
0E0001E0
0E0001E0
0E0001E0
0E0001E0
0E0001E0
0E0001E0
0E0001E0
0E0001E0
0E0003C0
0E0003C0
0E0003C0
0E000780
0E000F00
0E001F00
1E00FC00
FFFFF800
FFFFC000
ENDCHAR

STARTCHAR Dcroat
ENCODING 208
SWIDTH 800 0
DWIDTH 30 0
BBX 27 26 1 0
BITMAP
FFFFC000
FFFFF000
0E00FC00
0E001E00
0E000F00
0E000780
0E000780
0E0003C0
0E0003C0
0E0001E0
0E0001E0
0E0001E0
FFFE01E0
FFFE01E0
0E0001E0
0E0001E0
0E0001E0
0E0003C0
0E0003C0
0E0003C0
0E000780
0E000F00
0E001F00
1E007C00
FFFFF800
FFFFC000
ENDCHAR

STARTCHAR Nacute
ENCODING 209
SWIDTH 740 0
DWIDTH 28 0
BBX 24 33 2 0
BITMAP
000600
001F00
003E00
007C00
008000
000000
000000
FF00FF
FF00FF
1F803C
1B8018
1BC018
19E018
19E018
18F018
187018
187818
183C18
183C18
181E18
180E18
180F18
180798
180798
1803D8
1801D8
1801F8
1800F8
1800F8
180078
3C0038
FF0038
FF0018
ENDCHAR

STARTCHAR Ncaron
ENCODING 210
SWIDTH 740 0
DWIDTH 28 0
BBX 24 32 2 0
BITMAP
018180
00F700
007E00
001800
000000
000000
FF00FF
FF00FF
1F803C
1B8018
1BC018
19E018
19E018
18F018
187018
187818
183C18
183C18
181E18
180E18
180F18
180798
180798
1803D8
1801D8
1801F8
1800F8
1800F8
180078
3C0038
FF0038
FF0018
ENDCHAR

STARTCHAR Oacute
ENCODING 211
SWIDTH 800 0
DWIDTH 30 0
BBX 26 33 2 0
BITMAP
00010000
00078000
001F8000
003E0000
00600000
00000000
00000000
007F8000
01FFF000
07C07800
0F003C00
1E001E00
3C000F00
3C000780
78000780
78000780
F00003C0
F00003C0
F00003C0
F00003C0
F00003C0
F00003C0
F00003C0
F00003C0
78000780
78000780
3C000F00
3C000F00
1E001E00
0F003C00
07C0F800
01FFE000
003F0000
ENDCHAR

STARTCHAR Ocircumflex
ENCODING 212
SWIDTH 800 0
DWIDTH 30 0
BBX 26 32 2 0
BITMAP
001C0000
003F0000
00778000
00C0C000
00000000
00000000
007F8000
01FFF000
07C07800
0F003C00
1E001E00
3C000F00
3C000780
78000780
78000780
F00003C0
F00003C0
F00003C0
F00003C0
F00003C0
F00003C0
F00003C0
F00003C0
78000780
78000780
3C000F00
3C000F00
1E001E00
0F003C00
07C0F800
01FFE000
003F0000
ENDCHAR

STARTCHAR Ohungarumlaut
ENCODING 213
SWIDTH 800 0
DWIDTH 30 0
BBX 26 33 2 0
BITMAP
000C6000
001CC000
0018C000
00318000
00310000
00230000
00000000
007F8000
01FFF000
07C07800
0F003C00
1E001E00
3C000F00
3C000780
78000780
78000780
F00003C0
F00003C0
F00003C0
F00003C0
F00003C0
F00003C0
F00003C0
F00003C0
78000780
78000780
3C000F00
3C000F00
1E001E00
0F003C00
07C0F800
01FFE000
003F0000
ENDCHAR

STARTCHAR Odieresis
ENCODING 214
SWIDTH 800 0
DWIDTH 30 0
BBX 27 32 2 0
BITMAP
0071C000
00F1E000
00FBE000
00F1E000
00208000
00000000
003FC000
01FFF000
07E07C00
0F801E00
1E000F00
3C000780
3C000780
780003C0
780003C0
F80001E0
F00001E0
F00001E0
F00001E0
F00001E0
F00001E0
F00001E0
780003E0
780003C0
780003C0
3C000780
3C000780
1E000F00
0F001E00
07C07C00
01FFF000
003F8000
ENDCHAR

STARTCHAR multiply
ENCODING 215
SWIDTH 600 0
DWIDTH 23 0
BBX 15 16 4 5
BITMAP
4004
E00E
F01E
783C
3C78
1CF0
0FE0
0380
07C0
0FE0
1EF0
3C78
783C
F01E
E00E
4004
ENDCHAR

STARTCHAR Rcaron
ENCODING 216
SWIDTH 720 0
DWIDTH 27 0
BBX 25 32 2 0
BITMAP
01C1C000
00FF0000
003E0000
00080000
00000000
00000000
FFFFC000
FFFFF000
1C00F800
1C003C00
1C001E00
1C001E00
1C001E00
1C001E00
1C001E00
1C003C00
1C003C00
1C00F800
1FFFF000
1FFF8000
1C3C0000
1C1E0000
1C0F0000
1C078000
1C07C000
1C03E000
1C01F000
1C00F000
1C007800
3E003C00
FFC03F80
FFC01F80
ENDCHAR

STARTCHAR Uring
ENCODING 217
SWIDTH 780 0
DWIDTH 30 0
BBX 27 35 1 0
BITMAP
001F0000
00318000
00208000
00208000
00308000
00338000
001F0000
00000000
00000000
FFC03FE0
FFC03FE0
1E000780
0E000300
0E000300
0E000300
0E000300
0E000300
0E000300
0E000300
0E000300
0E000300
0E000300
0E000300
0E000300
0E000300
0E000300
0E000300
0E000300
0E000700
0F000600
07800E00
07C01C00
03F0F800
00FFF000
003FC000
ENDCHAR

STARTCHAR Uacute
ENCODING 218
SWIDTH 780 0
DWIDTH 30 0
BBX 27 33 1 0
BITMAP
00018000
0007C000
000F8000
001F0000
00200000
00000000
00000000
FFE01FE0
FFE01FE0
1F000780
0E000300
0E000300
0E000300
0E000300
0E000300
0E000300
0E000300
0E000300
0E000300
0E000300
0E000300
0E000300
0E000300
0E000300
0E000300
0E000300
0F000700
0F000600
07800E00
03C01C00
01F0F800
00FFF000
003FC000
ENDCHAR

STARTCHAR Uhungarumlaut
ENCODING 219
SWIDTH 780 0
DWIDTH 30 0
BBX 27 33 1 0
BITMAP
00067000
000E6000
000CE000
0018C000
00108000
00210000
00000000
FFE01FE0
FFE01FE0
1F000780
0E000300
0E000300
0E000300
0E000300
0E000300
0E000300
0E000300
0E000300
0E000300
0E000300
0E000300
0E000300
0E000300
0E000300
0E000300
0E000300
0F000700
0F000600
07800E00
03C01C00
01F0F800
00FFF000
003FC000
ENDCHAR

STARTCHAR Udieresis
ENCODING 220
SWIDTH 780 0
DWIDTH 30 0
BBX 27 32 1 0
BITMAP
0031C000
0071E000
00FBE000
0071E000
00208000
00000000
FFC03FE0
FFC03FE0
1E000780
0E000300
0E000300
0E000300
0E000300
0E000300
0E000300
0E000300
0E000300
0E000300
0E000300
0E000300
0E000300
0E000300
0E000300
0E000300
0E000300
0F000700
0F000600
07800E00
03C03C00
03F0F800
00FFF000
003FC000
ENDCHAR

STARTCHAR Yacute
ENCODING 221
SWIDTH 640 0
DWIDTH 24 0
BBX 24 33 0 0
BITMAP
000600
000F00
003F00
007C00
008000
000000
000000
FFC0FF
FFC0FF
3E001C
1E0038
0F0030
0F0070
078060
03C0C0
03C1C0
01E180
01E380
00F300
00F600
007E00
007C00
003C00
003C00
003C00
003C00
003C00
003C00
003C00
003C00
003C00
01FF80
01FF80
ENDCHAR

STARTCHAR Tcommaaccent
ENCODING 222
SWIDTH 620 0
DWIDTH 24 0
BBX 25 36 -1 -9
BITMAP
10000400
1FFFFC00
3FFFFE00
3C1E1E00
301C0E00
701C0700
601C0300
C01C0180
001C0000
001C0000
001C0000
001C0000
001C0000
001C0000
001C0000
001C0000
001C0000
001C0000
001C0000
001C0000
001C0000
001C0000
001C0000
001C0000
003E0000
00FFC000
00FFC000
00000000
00000000
001C0000
001E0000
001E0000
00060000
00040000
000C0000
00180000
ENDCHAR

STARTCHAR germandbls
ENCODING 223
SWIDTH 660 0
DWIDTH 25 0
BBX 22 28 1 0
BITMAP
00FC00
03FF00
078780
0E03C0
0E01C0
1C01C0
1C01C0
1C0FC0
1C1F00
1C3800
FC7000
FC7000
1C7800
1C3C00
1C3F80
1C0FC0
1C03F0
1C00F8
1C0078
1C003C
1C001C
1C001C
1C401C
1DE018
1DE038
1CF070
FC7FE0
FC1F80
ENDCHAR

STARTCHAR racute
ENCODING 224
SWIDTH 440 0
DWIDTH 17 0
BBX 15 26 2 0
BITMAP
0060
01E0
07E0
0F80
0800
0000
0000
0000
0C3C
FCFE
FDFE
1F0C
1E00
1C00
1C00
1C00
1C00
1C00
1C00
1C00
1C00
1C00
1C00
1C00
FF80
FF80
ENDCHAR

STARTCHAR aacute
ENCODING 225
SWIDTH 580 0
DWIDTH 22 0
BBX 20 26 2 0
BITMAP
001800
003C00
00FC00
01F000
030000
000000
000000
000000
03F000
1FFC00
3C0E00
780700
780700
700700
300700
001F00
07FF00
1FC700
780700
F00700
E00700
E00700
F01F00
F87780
7FE3F0
1F00F0
ENDCHAR

STARTCHAR acircumflex
ENCODING 226
SWIDTH 580 0
DWIDTH 22 0
BBX 20 26 2 0
BITMAP
002000
00F000
01F800
079E00
040200
000000
000000
000000
03F000
1FFC00
3C0E00
780700
780700
700700
300700
001F00
07FF00
1FC700
780700
F00700
E00700
E00700
F01F00
F87780
7FE3F0
1F00F0
ENDCHAR

STARTCHAR abreve
ENCODING 227
SWIDTH 580 0
DWIDTH 22 0
BBX 20 26 2 0
BITMAP
080100
0E0700
07FE00
03FC00
00F000
000000
000000
000000
03F000
1FFC00
3C0E00
780700
780700
700700
300700
001F00
07FF00
1FC700
780700
F00700
E00700
E00700
F01F00
F87780
7FE3F0
1F00F0
ENDCHAR

STARTCHAR adieresis
ENCODING 228
SWIDTH 580 0
DWIDTH 22 0
BBX 20 26 2 0
BITMAP
038600
07CF00
07DF00
07CF00
038E00
000000
000000
000000
03F000
1FFC00
3C0E00
780700
780700
780700
300700
001F00
07FF00
1FC700
7C0700
F00700
E00700
E00700
F01F00
F87780
7FE3F0
1F80F0
ENDCHAR

STARTCHAR lacute
ENCODING 229
SWIDTH 300 0
DWIDTH 11 0
BBX 9 33 1 0
BITMAP
0300
0F00
1F00
3E00
4000
0000
1C00
FC00
FC00
1C00
1C00
1C00
1C00
1C00
1C00
1C00
1C00
1C00
1C00
1C00
1C00
1C00
1C00
1C00
1C00
1C00
1C00
1C00
1C00
1C00
3C00
FF80
FF80
ENDCHAR

STARTCHAR cacute
ENCODING 230
SWIDTH 520 0
DWIDTH 20 0
BBX 18 26 1 0
BITMAP
003000
00F800
01F000
03E000
040000
000000
000000
000000
01F800
0FFE00
1E0F00
3C0780
780380
700380
700000
F00000
F00000
F00000
F00000
700000
780000
7801C0
3C0380
1E0700
0FFC00
03F000
ENDCHAR

STARTCHAR ccedilla
ENCODING 231
SWIDTH 520 0
DWIDTH 20 0
BBX 17 25 1 -7
BITMAP
01F000
0FFE00
1E0F00
3C0780
780380
700380
700000
F00000
F00000
F00000
F00000
700000
780000
780180
3C0380
1E0F00
0FFC00
01F000
010000
03E000
003000
003000
063000
066000
03C000
ENDCHAR

STARTCHAR ccaron
ENCODING 232
SWIDTH 520 0
DWIDTH 20 0
BBX 18 25 1 0
BITMAP
0C0C00
0F7800
03F000
01C000
000000
000000
000000
01F800
0FFE00
1E0F00
3C0780
780380
700380
700000
F00000
F00000
F00000
F00000
700000
780000
7801C0
3C0380
1E0700
0FFC00
03F000
ENDCHAR

STARTCHAR eacute
ENCODING 233
SWIDTH 520 0
DWIDTH 20 0
BBX 17 26 1 0
BITMAP
003000
00F800
01F000
03E000
040000
000000
000000
000000
03F000
0FFC00
1E0E00
380700
780700
700380
7FFF80
FFFF80
F00000
F00000
F00000
700000
780000
780180
3C0380
1E0E00
0FFC00
03F000
ENDCHAR

STARTCHAR eogonek
ENCODING 234
SWIDTH 520 0
DWIDTH 20 0
BBX 17 23 1 -5
BITMAP
01F000
0FFC00
1E0F00
3C0700
780780
700380
7FFF80
FFFF80
F00000
F00000
F00000
700000
780000
780080
3C0380
1E0700
0FFC00
01F000
008000
018000
018C00
01F800
00E000
ENDCHAR

STARTCHAR edieresis
ENCODING 235
SWIDTH 520 0
DWIDTH 20 0
BBX 17 25 1 0
BITMAP
0E3800
1E7C00
1F7C00
0E3800
041000
000000
000000
03F000
0FFC00
1C1E00
380F00
780700
700700
7FFF80
FFFF80
F00000
F00000
F00000
700000
700000
780180
3C0300
1E0E00
0FFC00
03F000
ENDCHAR

STARTCHAR ecaron
ENCODING 236
SWIDTH 520 0
DWIDTH 20 0
BBX 17 25 1 0
BITMAP
180C00
0F7800
03F000
01C000
000000
000000
000000
03F000
0FFC00
1E0E00
380700
780700
700780
7FFF80
FFFF80
F00000
F00000
F00000
700000
780000
780180
3C0380
1E0E00
0FFC00
03F000
ENDCHAR

STARTCHAR iacute
ENCODING 237
SWIDTH 300 0
DWIDTH 11 0
BBX 9 26 1 0
BITMAP
0700
1F00
3E00
6000
0000
0000
0000
0C00
3C00
FC00
FC00
1C00
1C00
1C00
1C00
1C00
1C00
1C00
1C00
1C00
1C00
1C00
1C00
1C00
FF80
FF80
ENDCHAR

STARTCHAR icircumflex
ENCODING 238
SWIDTH 300 0
DWIDTH 11 0
BBX 11 26 0 0
BITMAP
0E00
1F00
7FC0
E0E0
0000
0000
0000
0600
1E00
7E00
7E00
0E00
0E00
0E00
0E00
0E00
0E00
0E00
0E00
0E00
0E00
0E00
0E00
0E00
7FC0
7FC0
ENDCHAR

STARTCHAR dcaron
ENCODING 239
SWIDTH 667 0
DWIDTH 25 0
BBX 24 27 1 0
BITMAP
0000CE
0007DF
000FCF
0001CF
0001C3
0001C2
0001C6
0001DC
0001C8
03F1C0
0FFDC0
1E0FC0
3C03C0
7803C0
7801C0
7001C0
F001C0
F001C0
F001C0
F001C0
F001C0
7001C0
7801C0
3C07C0
1E1DE0
0FF9F8
07E1F8
ENDCHAR

STARTCHAR dcroat
ENCODING 240
SWIDTH 620 0
DWIDTH 24 0
BBX 21 27 1 0
BITMAP
0000C0
000FC0
000FC0
0001C0
0001C0
00FFF8
00FFF8
0001C0
0001C0
03F1C0
0FFDC0
1E0FC0
3C03C0
7803C0
7801C0
7001C0
F001C0
F001C0
F001C0
F001C0
F001C0
7001C0
7801C0
3C07C0
1E1DC0
0FF9F8
07E1F8
ENDCHAR

STARTCHAR nacute
ENCODING 241
SWIDTH 660 0
DWIDTH 25 0
BBX 22 26 2 0
BITMAP
000E00
003E00
007C00
01F000
000000
000000
000000
000000
1C3F80
FCFFC0
FDC3E0
1F01E0
1E00E0
1C00E0
1C00E0
1C00E0
1C00E0
1C00E0
1C00E0
1C00E0
1C00E0
1C00E0
1C00E0
1C00E0
FF87FC
FF87FC
ENDCHAR

STARTCHAR ncaron
ENCODING 242
SWIDTH 660 0
DWIDTH 25 0
BBX 22 25 2 0
BITMAP
038700
01FE00
007800
003000
000000
000000
000000
1C3F80
FCFFC0
FDC3E0
1F01E0
1E00E0
1C00E0
1C00E0
1C00E0
1C00E0
1C00E0
1C00E0
1C00E0
1C00E0
1C00E0
1C00E0
1C00E0
FF87FC
FF87FC
ENDCHAR

STARTCHAR oacute
ENCODING 243
SWIDTH 560 0
DWIDTH 21 0
BBX 19 26 1 0
BITMAP
001800
007800
00F800
03E000
020000
000000
000000
000000
03F800
0FFE00
1E0F00
3C0780
7803C0
7001C0
7001E0
F001E0
F001E0
F001E0
F001E0
7001E0
7001C0
7803C0
3C0780
1E0F00
0FFE00
01F000
ENDCHAR

STARTCHAR ocircumflex
ENCODING 244
SWIDTH 560 0
DWIDTH 21 0
BBX 19 26 1 0
BITMAP
004000
00E000
03F800
071C00
0C0600
000000
000000
000000
03F800
0FFE00
1E0F00
3C0780
7803C0
7001C0
7001E0
F001E0
F001E0
F001E0
F001E0
7001E0
7001C0
7803C0
3C0780
1E0F00
0FFE00
01F000
ENDCHAR

STARTCHAR ohungarumlaut
ENCODING 245
SWIDTH 560 0
DWIDTH 21 0
BBX 19 26 1 0
BITMAP
00C600
00C600
01CE00
018C00
031800
021000
000000
000000
03F800
0FFE00
1E0F00
3C0780
7803C0
7001C0
7001E0
F001E0
F001E0
F001E0
F001E0
7001E0
7001C0
7803C0
3C0780
1E0F00
0FFE00
01F000
ENDCHAR

STARTCHAR odieresis
ENCODING 246
SWIDTH 560 0
DWIDTH 21 0
BBX 19 26 1 0
BITMAP
070C00
0F1E00
0FBE00
0F9E00
071C00
000000
000000
000000
03F800
0FFE00
1E0F00
3C0780
7803C0
7801C0
7001E0
F001E0
F001E0
F001E0
F001E0
7001E0
7801C0
7803C0
3C0780
1E0F00
0FFE00
01F000
ENDCHAR

STARTCHAR divide
ENCODING 247
SWIDTH 600 0
DWIDTH 23 0
BBX 18 16 2 5
BITMAP
00C000
01E000
01E000
00C000
000000
000000
000000
FFFFC0
FFFFC0
000000
000000
000000
00C000
01E000
01E000
00C000
ENDCHAR

STARTCHAR rcaron
ENCODING 248
SWIDTH 440 0
DWIDTH 17 0
BBX 15 25 2 0
BITMAP
3038
1EF0
07C0
0380
0000
0000
0000
0C3C
FCFE
FDFE
1F0C
1E00
1C00
1C00
1C00
1C00
1C00
1C00
1C00
1C00
1C00
1C00
1C00
FF80
FF80
ENDCHAR

STARTCHAR uring
ENCODING 249
SWIDTH 680 0
DWIDTH 26 0
BBX 24 27 1 0
BITMAP
003C00
006600
004200
004200
004200
006600
003C00
000000
000000
3E00F8
FE03F8
1E0078
0E0038
0E0038
0E0038
0E0038
0E0038
0E0038
0E0038
0E0038
0E0038
0E0038
0E0078
0F01F8
0787BC
03FE3F
01F83F
ENDCHAR

STARTCHAR uacute
ENCODING 250
SWIDTH 680 0
DWIDTH 26 0
BBX 24 26 0 0
BITMAP
000200
000F00
001F00
007C00
00C000
000000
000000
000000
3E00F8
FE03F8
1E0078
0E0038
0E0038
0E0038
0E0038
0E0038
0E0038
0E0038
0E0038
0E0038
0E0038
0E0078
0F01F8
0787BC
03FE3F
01F83F
ENDCHAR

STARTCHAR uhungarumlaut
ENCODING 251
SWIDTH 680 0
DWIDTH 26 0
BBX 24 26 0 0
BITMAP
0018C0
0039C0
003180
006300
006200
004200
000000
000000
3E00F8
FE03F8
1E0078
0E0038
0E0038
0E0038
0E0038
0E0038
0E0038
0E0038
0E0038
0E0038
0E0038
0E0078
0F01F8
0787BC
03FE3F
01F83F
ENDCHAR

STARTCHAR udieresis
ENCODING 252
SWIDTH 680 0
DWIDTH 26 0
BBX 24 25 0 0
BITMAP
00E380
01E7C0
01F7C0
00E380
004100
000000
000000
3E00F8
FE03F8
1E0078
0E0038
0E0038
0E0038
0E0038
0E0038
0E0038
0E0038
0E0038
0E0038
0E0038
0E0078
0F00F8
0787BC
03FF3F
01FC3F
ENDCHAR

STARTCHAR yacute
ENCODING 253
SWIDTH 540 0
DWIDTH 21 0
BBX 22 34 -1 -8
BITMAP
000E00
003E00
007C00
01E000
000000
000000
000000
000000
7FC3FC
7FC3FC
1E0060
0F0060
0F00C0
0700C0
078180
038180
03C180
01C300
01E300
00E600
00E600
007C00
007C00
007800
003800
001800
003000
003000
006000
006000
60C000
F98000
7F8000
3E0000
ENDCHAR

STARTCHAR tcommaaccent
ENCODING 254
SWIDTH 380 0
DWIDTH 14 0
BBX 13 32 1 -8
BITMAP
0400
0C00
0C00
0C00
1C00
3C00
FFF0
FFF0
1C00
1C00
1C00
1C00
1C00
1C00
1C00
1C00
1C00
1C00
1C00
1C00
1E00
1E18
0FF0
03C0
0000
0700
0F80
0780
0180
0100
0300
0600
ENDCHAR

STARTCHAR dotaccent
ENCODING 255
SWIDTH 260 0
DWIDTH 10 0
BBX 5 5 2 21
BITMAP
70
F8
F8
70
20
ENDCHAR
ENDFONT
